# xmcd
# 
# Track frame offsets:
#     150
#     18263
#     32702
#     50627
#     66377
#     80290
#     97053
#     111903
#     124728
#     141078
#     162751
# 
# Disc length: 2400
# 
# Revision: 2
# Processed by: cddbd v1.5.2PL0 Copyright (c) Steve Scherf et al.
# Submitted via: fre:ac v1.0.17
# 
DISCID=93095e0b
DTITLE=James Blunt - Moon Landing
DYEAR=2013
DGENRE=Pop
TTITLE0=Face the Sun
TTITLE1=Satellites
TTITLE2=Bonfire Heart
TTITLE3=Heart to Heart
TTITLE4=Miss America
TTITLE5=The only One
TTITLE6=Sun on Sunday
TTITLE7=Bones
TTITLE8=Always hate me
TTITLE9=Postcards
TTITLE10=Blue on Blue
EXTD=
EXTT0=
EXTT1=
EXTT2=
EXTT3=
EXTT4=
EXTT5=
EXTT6=
EXTT7=
EXTT8=
EXTT9=
EXTT10=
PLAYORDER=
